<svg width="50" height="50" viewBox="0 0 50 50" fill="none" xmlns="http://www.w3.org/2000/svg">
<path d="M37.3195 10.4773L25.0008 22.796L12.682 10.4773C12.3857 10.2062 11.9963 10.0598 11.5947 10.0687C11.1932 10.0776 10.8106 10.2411 10.5266 10.525C10.2427 10.809 10.0792 11.1916 10.0703 11.5931C10.0614 11.9947 10.2078 12.3841 10.4789 12.6804L22.7914 24.9992L10.4758 37.3148C10.3253 37.4582 10.205 37.6302 10.122 37.8207C10.039 38.0113 9.99488 38.2165 9.99231 38.4243C9.98973 38.6322 10.0287 38.8384 10.107 39.0309C10.1853 39.2235 10.3013 39.3984 10.4481 39.5455C10.595 39.6926 10.7698 39.8088 10.9622 39.8874C11.1546 39.9659 11.3608 40.0052 11.5687 40.0029C11.7765 40.0006 11.9818 39.9568 12.1724 39.8741C12.3631 39.7913 12.5353 39.6713 12.6789 39.521L25.0008 27.2054L37.3195 39.5242C37.6158 39.7953 38.0053 39.9417 38.4068 39.9328C38.8083 39.9239 39.1909 39.7604 39.4749 39.4764C39.7589 39.1924 39.9223 38.8098 39.9312 38.4083C39.9401 38.0068 39.7938 37.6173 39.5226 37.321L27.2039 25.0023L39.5226 12.6804C39.6731 12.537 39.7934 12.365 39.8764 12.1745C39.9594 11.9839 40.0035 11.7787 40.0061 11.5709C40.0087 11.363 39.9697 11.1568 39.8914 10.9643C39.8131 10.7717 39.6971 10.5968 39.5503 10.4497C39.4034 10.3026 39.2286 10.1864 39.0362 10.1078C38.8438 10.0293 38.6376 9.99 38.4297 9.99228C38.2219 9.99456 38.0166 10.0384 37.826 10.1211C37.6353 10.2039 37.4631 10.3239 37.3195 10.4742V10.4773Z" fill="#C5CED6"/>
</svg>
