<?xml version="1.0" standalone="no"?>
<!DOCTYPE svg PUBLIC "-//W3C//DTD SVG 20010904//EN"
 "http://www.w3.org/TR/2001/REC-SVG-20010904/DTD/svg10.dtd">
<svg version="1.0" xmlns="http://www.w3.org/2000/svg"
 width="137.000000pt" height="137.000000pt" viewBox="0 0 137.000000 137.000000"
 preserveAspectRatio="xMidYMid meet">
<metadata>
Created by potrace 1.14, written by Peter Selinger 2001-2017
</metadata>
<g transform="translate(0.000000,137.000000) scale(0.100000,-0.100000)"
fill="#000000" stroke="none">
<path d="M0 685 l0 -685 685 0 685 0 0 685 0 685 -685 0 -685 0 0 -685z m1020
345 l0 -100 -110 0 -110 0 0 -355 0 -356 -121 3 -120 3 0 337 c0 186 -2 344
-5 353 -5 12 -26 15 -115 15 l-109 0 0 100 0 100 345 0 345 0 0 -100z"/>
</g>
</svg>
