<svg width="20" height="20" viewBox="0 0 20 20" fill="none" xmlns="http://www.w3.org/2000/svg">
<path d="M3.64335 6.05325C3.65356 5.95181 3.63989 5.84938 3.60342 5.75416C3.56696 5.65895 3.50872 5.57359 3.43335 5.50492L1.87669 3.61575V3.33325H6.70835L10.4434 11.5874L13.7267 3.33325H18.3334V3.61575L17.0025 4.89992C16.9461 4.94346 16.9026 5.0015 16.8766 5.06784C16.8507 5.13418 16.8432 5.20633 16.855 5.27659V14.7216C16.8432 14.7918 16.8507 14.864 16.8766 14.9303C16.9026 14.9967 16.9461 15.0547 17.0025 15.0983L18.3025 16.3833V16.6666H11.7659V16.3841L13.1125 15.0674C13.245 14.9341 13.245 14.8949 13.245 14.6916V7.05659L9.50169 16.6349H8.99669L4.63835 7.05659V13.4766C4.60252 13.7458 4.69169 14.0183 4.88002 14.2133L6.63085 16.3533V16.6349H1.66669V16.3533L3.41669 14.2133C3.50928 14.1166 3.578 13.9997 3.61736 13.8718C3.65671 13.7439 3.66562 13.6085 3.64335 13.4766V6.05325Z" fill="#697CA6"/>
</svg>
