<svg width="20" height="20" viewBox="0 0 20 20" fill="none" xmlns="http://www.w3.org/2000/svg">
<path d="M3.15233 7.43973C2.62199 6.80331 1.67614 6.71733 1.03972 7.24767C0.403309 7.77802 0.317323 8.72386 0.847669 9.36028L3.15233 7.43973ZM10 18L8.84767 18.9603C9.13266 19.3023 9.55483 19.5 10 19.5C10.4452 19.5 10.8673 19.3023 11.1523 18.9603L10 18ZM19.1523 9.36028C19.6827 8.72386 19.5967 7.77802 18.9603 7.24767C18.3239 6.71732 17.378 6.80331 16.8477 7.43973L19.1523 9.36028ZM0.847669 9.36028L8.84767 18.9603L11.1523 17.0397L3.15233 7.43973L0.847669 9.36028ZM11.1523 18.9603L19.1523 9.36028L16.8477 7.43973L8.84767 17.0397L11.1523 18.9603Z" fill="#D8E3FE"/>
</svg>
