<svg width="182" height="158" viewBox="0 0 182 158" fill="none" xmlns="http://www.w3.org/2000/svg">
<path d="M180.26 36.0211L122.708 12.7081C121.312 12.1431 119.75 12.8866 119.218 14.3679C118.686 15.8506 119.386 17.5103 120.782 18.0753L171.709 38.7047L136.454 52.9873L92.115 31.6571C90.7542 31.0021 89.1532 31.6439 88.5381 33.0882C87.9216 34.534 88.5256 36.2351 89.885 36.8901L129.338 55.8701L91 71.3993L10.2905 38.7047L91 6.01018L110.89 14.0684C112.282 14.6319 113.846 13.8899 114.379 12.4072C114.911 10.9259 114.211 9.26621 112.816 8.70116L91.9637 0.253476C91.343 0.00267203 90.657 0.00119644 90.0363 0.253476L1.73985 36.0211C0.692886 36.446 0 37.5142 0 38.7047V51.8203C0 53.0109 0.692886 54.079 1.73985 54.5039L29.3123 65.6721V75.6246C29.3123 77.2106 30.5217 78.4971 32.0144 78.4971C33.5085 78.4971 34.7179 77.2106 34.7179 75.6246V67.863L90.0363 90.2716C90.3474 90.397 90.6737 90.4604 91 90.4604C91.3263 90.4604 91.6526 90.397 91.9637 90.2716L133.662 73.3807V118.832C120.571 126.134 105.891 130.046 91 130.046C70.6772 130.046 50.7432 122.767 34.7179 109.52V87.1129C34.7179 85.527 33.5085 84.2405 32.0144 84.2405C30.5217 84.2405 29.3123 85.527 29.3123 87.1129V110.911C29.3123 111.783 29.6844 112.608 30.3245 113.152C47.4745 127.751 69.0234 135.79 91 135.79C105.821 135.79 120.446 132.128 133.662 125.269V136.893C129.306 138.158 126.094 142.396 126.094 147.42C126.094 153.436 130.701 158.333 136.364 158.333C142.028 158.333 146.635 153.436 146.635 147.42C146.635 142.396 143.423 138.158 139.067 136.893V122.236C143.473 119.573 147.694 116.543 151.677 113.152C152.317 112.608 152.69 111.783 152.69 110.911V65.6706L180.26 54.5025C181.307 54.079 182 53.0109 182 51.8189V38.7047C182 37.5142 181.307 36.446 180.26 36.0211V36.0211ZM141.229 147.42C141.229 150.268 139.047 152.588 136.364 152.588C133.683 152.588 131.5 150.268 131.5 147.42C131.5 144.569 133.683 142.25 136.364 142.25C139.047 142.25 141.229 144.569 141.229 147.42ZM5.40562 42.874L88.2965 76.4523V83.4187L5.40562 49.8405V42.874ZM93.7035 83.4187V76.4523L133.662 60.2651V67.233L93.7035 83.4187ZM147.283 109.519C144.647 111.699 141.901 113.714 139.067 115.564V71.1898L147.283 67.8615V109.519ZM139.067 65.0422V58.0757L176.594 42.874V49.8405L139.067 65.0422Z" fill="#1A2A5C"/>
</svg>
