<svg width="128" height="128" viewBox="0 0 128 128" fill="none" xmlns="http://www.w3.org/2000/svg">
<path fill-rule="evenodd" clip-rule="evenodd" d="M58.125 0.263476C43.3148 1.79073 30.1985 7.81273 19.8023 17.8587C14.0385 23.428 10.1627 28.6787 6.7665 35.5185C3.59425 41.9072 1.59775 48.3287 0.592998 55.375C-0.0367519 59.79 -0.0427518 68.649 0.581248 72.75C1.17275 76.639 2.28825 81.2307 3.55675 85C4.788 88.6582 8.06275 95.3737 10.2547 98.7357L11.794 101.096L9.51 109.584C7.9855 115.251 7.276 118.299 7.376 118.755C7.54775 119.536 8.35775 120.361 9.2065 120.619C9.59825 120.738 12.5817 120.048 18.3535 118.502L26.9193 116.208L29.022 117.575C44.316 127.515 62.8803 130.462 80.6455 125.771C88.815 123.614 97.408 119.222 104.29 113.687C107.329 111.243 112.618 105.781 114.961 102.668C118.669 97.74 121.975 91.689 124.115 85.9107C129.112 72.423 129.197 56.53 124.346 42.701C122.621 37.7822 118.217 29.3407 116.408 27.4855C115.406 26.4577 114.006 26.4557 112.981 27.4807C111.811 28.651 111.961 29.5642 113.798 32.4465C120.732 43.3277 123.907 56.401 122.736 69.25C120.363 95.295 101.229 116.604 75.625 121.718C69.5838 122.925 61.8575 123.191 56.125 122.39C46.7855 121.085 38.8778 118.09 30.9995 112.875C29.442 111.843 27.9333 110.998 27.6465 110.996C27.3598 110.995 24.1125 111.798 20.4308 112.781C16.7488 113.765 13.6675 114.501 13.5832 114.416C13.499 114.332 14.236 111.251 15.2207 107.569C16.2055 103.887 17.0088 100.645 17.0058 100.363C17.0025 100.082 16.1642 98.5955 15.143 97.0597C12.0042 92.341 10.1097 88.5377 8.3445 83.4135C4.56425 72.4397 4.09975 60.6957 6.99325 49.2475C8.063 45.0145 9.36 41.5895 11.4892 37.375C14.6482 31.1217 17.5103 27.1795 22.475 22.2425C31.1705 13.5957 41.9625 7.98123 53.875 5.90673C68.2568 3.40198 82.8653 6.26323 95.2228 14.005C98.4823 16.0467 99.3293 16.209 100.519 15.0192C101.544 13.9942 101.542 12.5942 100.515 11.5922C98.6593 9.78348 90.2178 5.37948 85.299 3.65423C81.7723 2.41698 77.2578 1.30548 73.375 0.718226C69.6025 0.147726 61.5708 -0.0917742 58.125 0.263476ZM106.196 18.4215C104.917 19.239 104.651 21.38 105.709 22.3377C106.854 23.3737 108.966 23.0245 109.659 21.6845C110.766 19.5442 108.209 17.1352 106.196 18.4215ZM59.3483 23.256C51.1105 24.738 43.8813 30.417 40.603 37.9817C40.1305 39.0722 39.6355 40.535 39.5033 41.2322C38.623 45.8745 42.4255 50.35 47.25 50.35C50.6165 50.35 52.9828 48.6785 54.645 45.126C56.002 42.2255 57.3073 40.7492 59.4455 39.6967C60.9788 38.9417 61.308 38.875 63.4948 38.876C65.5898 38.877 66.0448 38.9605 67.2915 39.5717C69.2248 40.52 71.527 43.0035 72.2498 44.9207C72.9588 46.8017 72.8723 49.9975 72.0633 51.8042C71.2913 53.5287 69.469 55.331 67.1578 56.6557C64.2763 58.3077 62.4553 59.825 60.6068 62.1152C57.4428 66.0352 55.9025 70.2382 55.8855 75C55.8763 77.5587 55.9425 78.012 56.4883 79.121C58.378 82.9615 63.038 84.607 66.875 82.7887C69.5265 81.5325 71.1223 79.2122 71.399 76.2107C71.4795 75.3385 71.6613 74.2447 71.8028 73.7797C72.1813 72.5377 73.5948 71.1117 75.603 69.9462C81.6968 66.4092 85.988 60.9127 87.8015 54.321C88.552 51.593 88.6083 44.738 87.9018 42.125C86.661 37.5355 84.3135 33.5865 80.8343 30.2355C78.2798 27.7747 77.1103 26.9272 74.3473 25.534C70.9203 23.806 68.4423 23.2115 64.25 23.1122C62.2563 23.065 60.0505 23.1295 59.3483 23.256ZM69.375 28.8522C72.58 29.9347 74.8543 31.3575 77.4035 33.875C80.0155 36.4542 81.6483 39.013 82.6678 42.125C83.6088 44.9977 83.7653 49.48 83.032 52.557C81.7228 58.0512 78.4958 62.3707 73.462 65.3675C70.4575 67.156 69.7883 67.7005 68.5825 69.3362C67.4205 70.913 66.5 73.4315 66.5 75.0342C66.5 76.2897 65.9635 77.572 65.2208 78.0922C64.898 78.3185 64.1515 78.5 63.5443 78.5C62.6333 78.5 62.3078 78.3577 61.6 77.65C60.8093 76.8592 60.75 76.6877 60.75 75.19C60.75 69.594 64.041 64.3475 69.6438 61.0115C73.0458 58.986 74.8875 57.162 76.2205 54.4987C77.4845 51.9737 77.8325 50.264 77.6933 47.2667C77.4778 42.6257 75.254 38.772 71.283 36.1575C68.8575 34.5605 67.0565 33.9602 64.2498 33.8135C61.4888 33.669 59.5405 34.0665 57 35.2927C54.7253 36.3907 51.9038 39.2727 50.8008 41.625C50.3495 42.5875 49.8425 43.6562 49.674 44C49.5058 44.3437 48.929 44.84 48.3925 45.103C47.507 45.5367 47.3245 45.5482 46.4185 45.228C44.1628 44.4302 43.8778 42.697 45.464 39.42C48.2353 33.6945 53.5213 29.5692 59.7688 28.2565C60.3773 28.1285 62.3375 28.0582 64.125 28.1002C66.867 28.1647 67.6875 28.2822 69.375 28.8522ZM62.0558 89.5155C55.9605 90.7167 53.639 98.3302 58.0295 102.72C59.675 104.366 60.9965 104.875 63.625 104.875C65.6518 104.875 66.0078 104.801 67.2138 104.133C70.8675 102.11 72.3943 97.7892 70.7618 94.0945C70.1758 92.768 68.6938 91.133 67.396 90.3805C66.5625 89.8972 63.8323 89.168 63.2665 89.2775C63.1888 89.2925 62.6438 89.3995 62.0558 89.5155ZM65.2085 94.9242C65.5293 95.1247 65.962 95.6965 66.1703 96.195C66.96 98.085 65.6155 100 63.499 100C62.6393 100 62.2965 99.8465 61.6 99.15C59.1573 96.7072 62.2558 93.0782 65.2085 94.9242Z" fill="#1A2A5C"/>
</svg>
