<svg width="126" height="126" viewBox="0 0 126 126" fill="none" xmlns="http://www.w3.org/2000/svg">
<g clip-path="url(#clip0_0_95)">
<path d="M125.279 1.95152C124.821 1.49379 124.186 1.23047 123.539 1.23047H74.1357C72.7773 1.23047 71.6748 2.33543 71.6748 3.69141C71.6748 5.04738 72.7773 6.15234 74.1357 6.15234H121.078V90.8086H87.3274C87.5097 89.6035 87.6094 88.3718 87.6094 87.1172C87.6094 85.8628 87.5144 84.6302 87.3325 83.4258H103.852C105.21 83.4258 106.312 82.3233 106.312 80.9648V80.9304C106.312 76.86 109.625 73.5476 113.695 73.5476C115.054 73.5476 116.156 72.4451 116.156 71.0866V25.8398C116.156 24.4814 115.054 23.3789 113.695 23.3789C109.625 23.3789 106.312 20.0665 106.312 15.9961C106.312 14.6377 105.21 13.5352 103.852 13.5352H22.1484C20.79 13.5352 19.6875 14.6377 19.6875 15.9961C19.6875 20.0665 16.3751 23.3789 12.3047 23.3789C10.9463 23.3789 9.84375 24.4814 9.84375 25.8398V71.3327C9.84375 72.6912 10.9463 73.7937 12.3047 73.7937C16.444 73.7937 19.6875 76.9289 19.6875 80.9304V80.9648C19.6875 82.3233 20.79 83.4258 22.1484 83.4258H38.6675C38.4856 84.6302 38.3906 85.8628 38.3906 87.1172C38.3906 88.3715 38.4856 89.6042 38.6675 90.8086H4.92188V6.15234H51.9873C53.3433 6.15234 54.4482 5.04738 54.4482 3.69141C54.4482 2.33543 53.3433 1.23047 51.9873 1.23047H2.46094C1.81371 1.23047 1.17879 1.49379 0.721055 1.95152C0.26332 2.40926 0 3.04418 0 3.69141V93.2695C0 93.9168 0.26332 94.5517 0.721055 95.0094C1.17879 95.4672 1.81371 95.7305 2.46094 95.7305H39.204L26.8562 110.444C26.2434 111.175 26.1081 112.194 26.5092 113.06C26.9104 113.927 27.7741 114.483 28.729 114.488L37.0839 114.53L38.5727 122.747C38.745 123.687 39.4414 124.442 40.3643 124.688C40.5735 124.742 40.7851 124.77 40.9943 124.77C41.7129 124.77 42.4069 124.457 42.8794 123.891L54.3914 110.171C57.0723 111.176 59.9728 111.727 63 111.727C66.027 111.727 68.9284 111.178 71.6084 110.171L83.1206 123.891C83.5931 124.457 84.2871 124.77 85.0057 124.77C85.2149 124.77 85.4265 124.742 85.6357 124.688C86.5586 124.442 87.255 123.687 87.4273 122.747L88.9161 114.53L97.271 114.488C98.2259 114.483 99.0896 113.927 99.4908 113.06C99.8919 112.194 99.7566 111.175 99.1438 110.444L86.796 95.7305H123.539C124.186 95.7305 124.821 95.4672 125.279 95.0094C125.737 94.5517 126 93.9168 126 93.2695V3.69141C126 3.04418 125.737 2.40926 125.279 1.95152ZM24.3707 78.5039C23.4109 73.7198 19.6481 70.0383 14.7656 69.1031V28.0547C19.5792 27.0728 23.3814 23.2706 24.3633 18.457H101.637C102.619 23.2706 106.421 27.0728 111.234 28.0547V68.8718C106.408 69.8562 102.601 73.6731 101.632 78.5039H86.0526C82.5536 69.1698 73.5407 62.5078 63 62.5078C52.4704 62.5078 43.4656 69.156 39.9587 78.4746L24.3707 78.5039ZM42.4807 116.71L41.5603 111.638C41.3487 110.471 40.3372 109.622 39.1511 109.618L33.9979 109.59L42.0424 100.003C44.0131 103.196 46.6924 105.907 49.8598 107.916L42.4807 116.71ZM63 106.805C52.1448 106.805 43.3125 97.9724 43.3125 87.1172C43.3125 76.262 52.1448 67.4297 63 67.4297C73.8552 67.4297 82.6875 76.262 82.6875 87.1172C82.6875 88.2664 82.5891 89.3936 82.3971 90.4887C82.0624 92.4304 81.4398 94.2736 80.5785 95.9766C78.8657 99.3628 76.2029 102.19 72.9422 104.105C71.4705 104.969 69.8783 105.648 68.1975 106.108C66.5413 106.564 64.7989 106.805 63 106.805V106.805ZM86.8489 109.618C85.6628 109.622 84.6513 110.471 84.4397 111.638L83.5193 116.71L76.1389 107.915C79.3086 105.909 81.9886 103.197 83.9573 100.003L92.0021 109.59L86.8489 109.618Z" fill="#1A2A5C"/>
<path d="M63.0615 6.15234C64.4207 6.15234 65.5225 5.05054 65.5225 3.69141C65.5225 2.33227 64.4207 1.23047 63.0615 1.23047C61.7024 1.23047 60.6006 2.33227 60.6006 3.69141C60.6006 5.05054 61.7024 6.15234 63.0615 6.15234Z" fill="#1A2A5C"/>
<path d="M66.1992 38.6367C66.1992 39.9959 67.301 41.0977 68.6602 41.0977H98.6836C100.043 41.0977 101.145 39.9959 101.145 38.6367C101.145 37.2775 100.043 36.1758 98.6836 36.1758H68.6602C67.301 36.1758 66.1992 37.2775 66.1992 38.6367Z" fill="#1A2A5C"/>
<path d="M27.3164 41.0977H57.5859C58.9451 41.0977 60.0469 39.9959 60.0469 38.6367C60.0469 37.2775 58.9451 36.1758 57.5859 36.1758H27.3164C25.9572 36.1758 24.8555 37.2775 24.8555 38.6367C24.8555 39.9959 25.9572 41.0977 27.3164 41.0977Z" fill="#1A2A5C"/>
<path d="M40.8516 31.2539H85.1484C86.5076 31.2539 87.6094 30.1521 87.6094 28.793C87.6094 27.4338 86.5076 26.332 85.1484 26.332H40.8516C39.4924 26.332 38.3906 27.4338 38.3906 28.793C38.3906 30.1521 39.4924 31.2539 40.8516 31.2539Z" fill="#1A2A5C"/>
<path d="M77.7656 87.1172C77.7656 78.9754 71.1418 72.3516 63 72.3516C54.8582 72.3516 48.2344 78.9754 48.2344 87.1172C48.2344 95.259 54.8582 101.883 63 101.883C71.1418 101.883 77.7656 95.259 77.7656 87.1172ZM63 96.9609C57.5722 96.9609 53.1562 92.545 53.1562 87.1172C53.1562 81.6893 57.5722 77.2734 63 77.2734C68.4278 77.2734 72.8438 81.6893 72.8438 87.1172C72.8438 92.545 68.4278 96.9609 63 96.9609Z" fill="#1A2A5C"/>
</g>
<defs>
<clipPath id="clip0_0_95">
<rect width="126" height="126" fill="white"/>
</clipPath>
</defs>
</svg>
