<svg width="127" height="126" viewBox="0 0 127 126" fill="none" xmlns="http://www.w3.org/2000/svg">
<path d="M114.195 7.64321H75.2594C74.1707 3.29152 69.3118 0 63.5 0C57.6882 0 52.8296 3.29152 51.7406 7.64321H12.806C11.5184 7.64321 10.4745 8.46935 10.4745 9.48892V124.154C10.4745 125.174 11.5184 126 12.806 126H114.195C115.483 126 116.526 125.174 116.526 124.154V36.2123C116.526 35.1928 115.483 34.3666 114.195 34.3666C112.907 34.3666 111.863 35.1928 111.863 36.2123V122.309H15.1374V11.3346H34.615C34.5301 12.6618 34.638 13.9799 34.9383 15.2894H22.4611C21.1736 15.2894 20.1297 16.1155 20.1297 17.1351V89.4353C20.1297 90.4548 21.1736 91.281 22.4611 91.281C23.7487 91.281 24.7925 90.4548 24.7925 89.4353V18.9808H37.1441C39.39 21.3015 42.9238 22.8019 46.8938 22.8019H80.1062C84.0762 22.8019 87.61 21.3015 89.8559 18.9808H102.205V114.665H24.7925V97.4803C24.7925 96.4608 23.7487 95.6346 22.4611 95.6346C21.1736 95.6346 20.1297 96.4608 20.1297 97.4803V116.511C20.1297 117.53 21.1736 118.357 22.4611 118.357H104.536C105.824 118.357 106.868 117.53 106.868 116.511V17.1351C106.868 16.1155 105.824 15.2894 104.536 15.2894H92.0617C92.362 13.9799 92.4699 12.6616 92.385 11.3346H111.863V28.17C111.863 29.1895 112.907 30.0157 114.195 30.0157C115.483 30.0157 116.526 29.1895 116.526 28.17V9.48892C116.526 8.46935 115.483 7.64321 114.195 7.64321ZM80.1062 19.1105H46.8938C41.4911 19.1105 39.0953 14.8885 39.2778 11.3356H53.8442C55.1035 11.3356 56.1809 10.4233 56.1759 9.47809C56.184 6.28624 59.4663 3.69142 63.5 3.69142C67.5371 3.69142 70.8216 6.29067 70.8244 9.48597C70.8244 10.3835 71.7047 11.3356 73.1558 11.3356H87.7222C87.9047 14.8885 85.5089 19.1105 80.1062 19.1105Z" fill="#1A2A5C"/>
<path d="M80.1637 78.7994L76.3112 71.2744C75.9942 70.6547 75.3533 70.2644 74.6526 70.2644H68.9514L70.4291 56.0402C76.8718 50.7327 75.0931 40.2223 67.9337 36.9224C67.0023 36.4925 65.8958 36.8946 65.4627 37.8187C65.0298 38.7432 65.4341 39.8408 66.366 40.2702C71.2193 42.5072 72.4134 49.6334 68.0277 53.2175H58.1629C53.7752 49.6346 54.974 42.5063 59.8251 40.2702C60.757 39.8408 61.1613 38.7432 60.7284 37.8187C60.2954 36.8943 59.1893 36.4932 58.2574 36.9224C51.1 40.2213 49.3166 50.7344 55.762 56.0407L57.2397 70.2644H51.5378C50.8376 70.2644 50.1964 70.6547 49.8791 71.2744L46.0267 78.7994C45.894 79.0585 45.825 79.3448 45.825 79.6351V87.1602C45.825 88.1798 46.6577 89.0059 47.6854 89.0059H78.505C79.5326 89.0059 80.3653 88.1798 80.3653 87.1602V79.6354C80.3653 79.3448 80.2964 79.0585 80.1637 78.7994ZM59.5929 56.9091H66.5982L65.2109 70.2639H60.98L59.5929 56.9091ZM52.6796 73.956H73.5108L75.5344 77.909H50.6558L52.6796 73.956ZM49.5457 85.3147V81.6002H76.6446V85.3147H49.5457Z" fill="#1A2A5C"/>
</svg>
