<svg width="141" height="142" viewBox="0 0 141 142" fill="none" xmlns="http://www.w3.org/2000/svg">
<path d="M79.8983 132.523C108.449 132.523 131.594 109.214 131.594 80.4607C131.594 51.7072 108.449 28.3979 79.8983 28.3979C51.3474 28.3979 28.2022 51.7072 28.2022 80.4607C28.2345 109.2 51.3606 132.491 79.8983 132.523ZM39.9513 78.0942H33.0217C34.2466 53.8575 53.4825 34.4851 77.5485 33.2516V40.2303C77.5485 41.5372 78.6007 42.5968 79.8983 42.5968C81.196 42.5968 82.2482 41.5372 82.2482 40.2303V33.2516C106.314 34.4851 125.55 53.8575 126.775 78.0942H117.496C116.198 78.0942 115.146 79.1538 115.146 80.4607C115.146 81.7675 116.198 82.8271 117.496 82.8271H126.775C125.55 107.064 106.314 126.436 82.2482 127.67V120.691C82.2482 119.384 81.196 118.324 79.8983 118.324C78.6007 118.324 77.5485 119.384 77.5485 120.691V127.67C53.4828 126.436 34.2466 107.064 33.0217 82.8271H39.9513C41.249 82.8271 42.3012 81.7675 42.3012 80.4607C42.3012 79.1538 41.249 78.0942 39.9513 78.0942Z" fill="#1A2A5C"/>
<path d="M132.805 49.7371C132.104 48.5148 131.362 47.3174 130.579 46.1465L136.381 40.3037C137.298 39.3796 137.298 37.8816 136.381 36.9575L123.105 23.5868C122.187 22.663 120.7 22.663 119.782 23.5868L113.971 29.4202C104.571 23.0289 93.582 19.4162 82.2482 18.9911V4.73298H98.6969C99.9946 4.73298 101.047 3.67338 101.047 2.36649C101.047 1.0596 99.9946 0 98.6969 0H61.0998C59.8021 0 58.7499 1.0596 58.7499 2.36649C58.7499 3.67338 59.8021 4.73298 61.0998 4.73298H77.5485V19.0124C56.5916 19.8182 37.5134 31.4051 27.0273 49.6963H14.1033C12.8056 49.6963 11.7535 50.7559 11.7535 52.0628C11.7535 53.3697 12.8056 54.4292 14.1033 54.4292H28.2022C28.2633 54.4292 28.315 54.3985 28.3761 54.3937C29.2229 54.4047 30.0084 53.9515 30.4275 53.2105C45.378 25.693 79.6478 15.591 106.972 30.6472C134.296 45.7034 144.326 80.2169 129.376 107.734C114.425 135.252 80.1557 145.354 52.8316 130.298C43.3759 125.087 35.6009 117.257 30.4272 107.734C30.0122 106.99 29.2279 106.533 28.3805 106.539C28.3194 106.539 28.2654 106.504 28.2019 106.504H14.103C12.8053 106.504 11.7532 107.563 11.7532 108.87C11.7532 110.177 12.8053 111.237 14.103 111.237H27.027C43.8902 140.653 81.2395 150.734 110.449 133.751C139.659 116.768 149.668 79.1537 132.805 49.7371ZM117.811 32.2641L121.443 28.6061L131.397 38.6306L127.759 42.2939C124.834 38.5797 121.496 35.2145 117.811 32.2641Z" fill="#1A2A5C"/>
<path d="M23.5027 80.4607C23.5027 79.1538 22.4505 78.0942 21.1528 78.0942H2.35423C1.05654 78.0942 0.00440979 79.1538 0.00440979 80.4607C0.00440979 81.7676 1.05654 82.8271 2.35423 82.8271H21.1528C22.4505 82.8271 23.5027 81.7676 23.5027 80.4607Z" fill="#1A2A5C"/>
<path d="M7.05375 68.6282H23.5025C24.8002 68.6282 25.8523 67.5686 25.8523 66.2618C25.8523 64.9549 24.8002 63.8953 23.5025 63.8953H7.05375C5.75606 63.8953 4.70393 64.9549 4.70393 66.2618C4.70393 67.5686 5.75577 68.6282 7.05375 68.6282Z" fill="#1A2A5C"/>
<path d="M25.8523 94.6596C25.8523 93.3527 24.8002 92.2931 23.5025 92.2931H7.05375C5.75606 92.2931 4.70393 93.3527 4.70393 94.6596C4.70393 95.9665 5.75606 97.0261 7.05375 97.0261H23.5025C24.8002 97.0261 25.8523 95.9665 25.8523 94.6596Z" fill="#1A2A5C"/>
<path d="M73.5376 96.3327C74.4552 97.2565 75.9426 97.2565 76.8602 96.3327L109.523 63.4385C110.424 62.4984 110.399 61.0004 109.465 60.0923C108.555 59.2066 107.111 59.2066 106.2 60.0923L75.1989 91.3134L61.2174 77.2328C60.284 76.3249 58.7962 76.3507 57.8948 77.2907C57.0154 78.2078 57.0154 79.6617 57.8948 80.579L73.5376 96.3327Z" fill="#1A2A5C"/>
</svg>
