<svg width="164" height="44" viewBox="0 0 164 44" fill="none" xmlns="http://www.w3.org/2000/svg">
<path d="M8.62598 24H4.38281V11.7646H0.547852V8.29492H12.4502V11.7646H8.62598V24ZM24.0195 24H14.6953V8.29492H24.0195V11.7002H18.9385V14.1709H23.6436V17.5762H18.9385V20.541H24.0195V24ZM40.917 24H36.0078L32.9463 19.0908L29.917 24H25.1152L30.3252 15.9648L25.4268 8.29492H30.1318L32.9678 13.1504L35.6963 8.29492H40.541L35.5674 16.2979L40.917 24ZM55.5586 24H51.2832V11.7646H46.9541V24H42.6895V8.29492H55.5586V24ZM70.3506 13.29C70.3506 15.0446 69.8314 16.4017 68.793 17.3613C67.7617 18.3138 66.2936 18.79 64.3887 18.79H63.1963V24H58.9531V8.29492H64.3887C66.3724 8.29492 67.862 8.72819 68.8574 9.59473C69.8529 10.4613 70.3506 11.693 70.3506 13.29ZM63.1963 15.3311H63.9697C64.6071 15.3311 65.112 15.152 65.4844 14.7939C65.8639 14.4359 66.0537 13.9417 66.0537 13.3115C66.0537 12.2516 65.4665 11.7217 64.292 11.7217H63.1963V15.3311ZM87.5488 16.126C87.5488 18.7686 86.9007 20.7773 85.6045 22.1523C84.3083 23.5273 82.4105 24.2148 79.9111 24.2148C77.4476 24.2148 75.557 23.5238 74.2393 22.1416C72.9287 20.7594 72.2734 18.7471 72.2734 16.1045C72.2734 13.4906 72.9251 11.4961 74.2285 10.1211C75.5391 8.73893 77.4404 8.04785 79.9326 8.04785C82.432 8.04785 84.3262 8.73177 85.6152 10.0996C86.9043 11.4674 87.5488 13.4762 87.5488 16.126ZM76.7422 16.126C76.7422 19.1624 77.7985 20.6807 79.9111 20.6807C80.9854 20.6807 81.7803 20.3118 82.2959 19.5742C82.8187 18.8366 83.0801 17.6872 83.0801 16.126C83.0801 14.5576 82.8151 13.401 82.2852 12.6562C81.7624 11.9043 80.9782 11.5283 79.9326 11.5283C77.8057 11.5283 76.7422 13.0609 76.7422 16.126ZM97.2275 24L94.0156 12.6885H93.9189C94.0693 14.6149 94.1445 16.1117 94.1445 17.1787V24H90.3848V8.29492H96.0352L99.3115 19.4453H99.3975L102.609 8.29492H108.271V24H104.371V17.1143C104.371 16.7562 104.375 16.3587 104.382 15.9219C104.396 15.485 104.446 14.4144 104.532 12.71H104.436L101.267 24H97.2275ZM118.647 11.5498C117.638 11.5498 116.85 11.9652 116.284 12.7959C115.718 13.6195 115.436 14.7581 115.436 16.2119C115.436 19.234 116.585 20.7451 118.884 20.7451C119.578 20.7451 120.252 20.6484 120.903 20.4551C121.555 20.2617 122.21 20.029 122.869 19.7568V23.3447C121.559 23.9248 120.076 24.2148 118.422 24.2148C116.051 24.2148 114.232 23.5273 112.965 22.1523C111.704 20.7773 111.074 18.79 111.074 16.1904C111.074 14.5648 111.379 13.1361 111.987 11.9043C112.603 10.6725 113.484 9.72721 114.63 9.06836C115.783 8.40234 117.136 8.06934 118.69 8.06934C120.388 8.06934 122.01 8.43815 123.557 9.17578L122.257 12.5166C121.677 12.2445 121.097 12.0153 120.517 11.8291C119.937 11.6429 119.313 11.5498 118.647 11.5498ZM135.266 24H125.941V8.29492H135.266V11.7002H130.185V14.1709H134.89V17.5762H130.185V20.541H135.266V24ZM149.413 13.29C149.413 15.0446 148.894 16.4017 147.855 17.3613C146.824 18.3138 145.356 18.79 143.451 18.79H142.259V24H138.016V8.29492H143.451C145.435 8.29492 146.924 8.72819 147.92 9.59473C148.915 10.4613 149.413 11.693 149.413 13.29ZM142.259 15.3311H143.032C143.67 15.3311 144.174 15.152 144.547 14.7939C144.926 14.4359 145.116 13.9417 145.116 13.3115C145.116 12.2516 144.529 11.7217 143.354 11.7217H142.259V15.3311ZM158.845 24H154.602V11.7646H150.767V8.29492H162.669V11.7646H158.845V24Z" fill="#1A2A5C"/>
<path d="M8.83203 38.9473H10.0078V42.6045H8.90723V40H1.37402V30.0059H2.53613V38.9473H7.66992V30.0059H8.83203V38.9473ZM17.2676 40H11.6963V30.0059H17.2676V31.0381H12.8584V34.2578H17.001V35.2832H12.8584V38.9609H17.2676V40ZM27.0771 40H25.915V35.2969H20.6514V40H19.4893V30.0059H20.6514V34.2578H25.915V30.0059H27.0771V40ZM32.9014 40H31.7393V31.0381H28.5742V30.0059H36.0664V31.0381H32.9014V40ZM43.9141 32.918C43.9141 33.9297 43.5677 34.709 42.875 35.2559C42.1868 35.7982 41.2002 36.0693 39.915 36.0693H38.7393V40H37.5771V30.0059H40.168C42.6654 30.0059 43.9141 30.9766 43.9141 32.918ZM38.7393 35.0713H39.7852C40.8151 35.0713 41.5602 34.9049 42.0205 34.5723C42.4808 34.2396 42.7109 33.7064 42.7109 32.9727C42.7109 32.3118 42.4945 31.8197 42.0615 31.4961C41.6286 31.1725 40.9541 31.0107 40.0381 31.0107H38.7393V35.0713ZM53.9287 30.9014C52.8304 30.9014 51.9622 31.2682 51.3242 32.002C50.6908 32.7311 50.374 33.7314 50.374 35.0029C50.374 36.3109 50.6794 37.3226 51.29 38.0381C51.9053 38.749 52.7803 39.1045 53.915 39.1045C54.6123 39.1045 55.4076 38.9792 56.3008 38.7285V39.7471C55.6081 40.0068 54.7536 40.1367 53.7373 40.1367C52.2653 40.1367 51.1283 39.6901 50.3262 38.7969C49.5286 37.9036 49.1299 36.6344 49.1299 34.9893C49.1299 33.9593 49.3213 33.057 49.7041 32.2822C50.0915 31.5075 50.6475 30.9105 51.3721 30.4912C52.1012 30.0719 52.958 29.8623 53.9424 29.8623C54.9906 29.8623 55.9066 30.0537 56.6904 30.4365L56.1982 31.4346C55.4417 31.0791 54.6852 30.9014 53.9287 30.9014ZM64.0527 40H58.4814V30.0059H64.0527V31.0381H59.6436V34.2578H63.7861V35.2832H59.6436V38.9609H64.0527V40ZM72.6113 32.918C72.6113 33.9297 72.265 34.709 71.5723 35.2559C70.8841 35.7982 69.8975 36.0693 68.6123 36.0693H67.4365V40H66.2744V30.0059H68.8652C71.3626 30.0059 72.6113 30.9766 72.6113 32.918ZM67.4365 35.0713H68.4824C69.5124 35.0713 70.2575 34.9049 70.7178 34.5723C71.1781 34.2396 71.4082 33.7064 71.4082 32.9727C71.4082 32.3118 71.1917 31.8197 70.7588 31.4961C70.3258 31.1725 69.6514 31.0107 68.7354 31.0107H67.4365V35.0713ZM77.7861 40H76.624V31.0381H73.459V30.0059H80.9512V31.0381H77.7861V40ZM82.4756 30.0059H83.5625V35.5635C83.5625 36.5889 83.5306 37.5163 83.4668 38.3457H83.5215L89.127 30.0059H90.3984V40H89.3047V34.4971C89.3047 33.5811 89.3434 32.6195 89.4209 31.6123H89.3594L83.7471 40H82.4756V30.0059ZM96.7627 29.8623H97.9385V31.0928H98.417C99.1963 31.0928 99.8708 31.2477 100.44 31.5576C101.015 31.8675 101.452 32.305 101.753 32.8701C102.058 33.4352 102.211 34.0801 102.211 34.8047C102.211 35.5612 102.04 36.2357 101.698 36.8281C101.361 37.416 100.896 37.8581 100.304 38.1543C99.7158 38.4505 99.0208 38.5986 98.2188 38.5986H97.9385V40.1367H96.7627V38.5986H96.4551C95.653 38.5986 94.958 38.4482 94.3701 38.1475C93.7822 37.8467 93.3219 37.4001 92.9893 36.8076C92.6566 36.2152 92.4902 35.5521 92.4902 34.8184C92.4902 34.0983 92.6429 33.4557 92.9482 32.8906C93.2581 32.3255 93.7002 31.8857 94.2744 31.5713C94.8486 31.2523 95.5254 31.0928 96.3047 31.0928H96.7627V29.8623ZM97.9385 37.6211H98.1094C99.0254 37.6211 99.7363 37.3727 100.242 36.876C100.753 36.3747 101.008 35.6797 101.008 34.791C101.008 33.9479 100.773 33.2871 100.304 32.8086C99.8343 32.3301 99.1781 32.0908 98.335 32.0908H97.9385V37.6211ZM96.7627 32.0908H96.373C95.5436 32.0908 94.8896 32.3324 94.4111 32.8154C93.9372 33.2985 93.7002 33.957 93.7002 34.791C93.7002 35.6888 93.9531 36.3861 94.459 36.8828C94.9648 37.375 95.6781 37.6211 96.5986 37.6211H96.7627V32.0908ZM104.323 30.0059H105.41V35.5635C105.41 36.5889 105.378 37.5163 105.314 38.3457H105.369L110.975 30.0059H112.246V40H111.152V34.4971C111.152 33.5811 111.191 32.6195 111.269 31.6123H111.207L105.595 40H104.323V30.0059ZM122.179 40H120.771L116.149 34.9346V40H114.987V30.0059H116.149V34.8457L120.654 30.0059H121.987L117.564 34.8594L122.179 40ZM129.842 40L128.598 36.8213H124.592L123.361 40H122.186L126.137 29.9648H127.114L131.045 40H129.842ZM128.235 35.7754L127.073 32.6787C126.923 32.2868 126.768 31.806 126.608 31.2363C126.508 31.6738 126.365 32.1546 126.178 32.6787L125.002 35.7754H128.235ZM139.877 38.9473H141.053V42.6045H139.952V40H132.419V30.0059H133.581V38.9473H138.715V30.0059H139.877V38.9473ZM142.755 30.0059H143.842V35.5635C143.842 36.5889 143.81 37.5163 143.746 38.3457H143.801L149.406 30.0059H150.678V40H149.584V34.4971C149.584 33.5811 149.623 32.6195 149.7 31.6123H149.639L144.026 40H142.755V30.0059ZM153.433 30.0059H154.52V35.5635C154.52 36.5889 154.488 37.5163 154.424 38.3457H154.479L160.084 30.0059H161.355V40H160.262V34.4971C160.262 33.5811 160.3 32.6195 160.378 31.6123H160.316L154.704 40H153.433V30.0059Z" fill="#4C5C68"/>
</svg>
